<mxfile host="app.diagrams.net" modified="2024-04-29T12:14:18.462Z" agent="Mozilla/5.0 (Windows NT 10.0; Win64; x64) AppleWebKit/537.36 (KHTML, like Gecko) Chrome/124.0.0.0 Safari/537.36" version="24.3.0" etag="f3si2Wa-rmsuY4P6rJCR" type="github">
  <diagram name="Page-1" id="zO6RmrkYbcABOhL9g-xg">
    <mxGraphModel>
      <root>
        <mxCell id="0" />
        <mxCell id="1" parent="0" />
      </root>
    </mxGraphModel>
  </diagram>
</mxfile>
